<svg xmlns="http://www.w3.org/2000/svg" width="22" height="22" viewBox="0 0 22 22">
  <defs>
    <style id="current-color-scheme" type="text/css">
      .ColorScheme-Text { color:#232629; }
      .ColorScheme-NegativeText { color:#da4453; }
    </style>
  </defs>
  <path class="ColorScheme-Text" fill="currentColor" fill-rule="evenodd" d="M13.77 4.85L13.60 4.50L13.38 4.17L13.12 3.88L12.83 3.62L12.50 3.40L12.15 3.23L11.78 3.10L11.39 3.03L11 3L10.61 3.03L10.22 3.10L9.85 3.23L9.50 3.40L9.17 3.62L8.88 3.88L8.62 4.17L8.40 4.50L8.23 4.85L8.10 5.22L8.03 5.61L8 6L8 11L8.03 11.39L8.10 11.78L8.23 12.15L8.40 12.50L8.62 12.83L8.88 13.12L9.17 13.38L9.50 13.60L9.85 13.77L10.22 13.90L10.61 13.97L11 14L11.39 13.97L11.78 13.90L12.15 13.77L12.50 13.60L12.83 13.38L13.12 13.12L13.38 12.83L13.60 12.50L13.77 12.15L13.90 11.78L13.97 11.39L14 11L14 6L13.97 5.61L13.90 5.22ZM6.02 11.49L6.10 11.98L6.22 12.45L6.38 12.91L6.59 13.36L6.84 13.78L7.13 14.17L7.46 14.54L7.83 14.87L8.22 15.16L8.64 15.41L9.09 15.62L9.55 15.78L10 15.90L10 18L7 18L7 19L10.82 19L10.86 18.77L10.97 18.49L12 16.69L12 15.90L12.54 15.75L13.46 14.15L13.22 14.33L12.89 14.53L12.53 14.70L12.16 14.83L11.78 14.92L11.39 14.98L11 15L10.61 14.98L10.22 14.92L9.84 14.83L9.47 14.70L9.11 14.53L8.78 14.33L8.46 14.09L8.17 13.83L7.91 13.54L7.67 13.22L7.47 12.89L7.30 12.53L7.17 12.16L7.08 11.78L7.02 11.39L7 11L7 9L6 9L6 11ZM16 11.02L16 9L15 9L15 11L14.98 11.39L14.95 11.61L15.14 11.41L15.38 11.23L15.66 11.10L15.84 11.04Z"/>
  <path class="ColorScheme-NegativeText error" fill="currentColor" fill-rule="evenodd" d="M11.88 18.90L11.83 19L11.81 19.12L11.80 19.23L11.82 19.34L11.85 19.45L11.91 19.55L11.99 19.63L12.08 19.70L12.18 19.76L12.29 19.79L12.40 19.80L20 19.80L20.11 19.79L20.22 19.76L20.32 19.70L20.41 19.63L20.49 19.55L20.55 19.45L20.58 19.34L20.60 19.23L20.59 19.12L20.57 19L20.52 18.90L16.72 12.30L16.65 12.21L16.57 12.13L16.48 12.07L16.37 12.02L16.26 12L16.14 12L16.03 12.02L15.92 12.07L15.83 12.13L15.75 12.21L15.68 12.30ZM16.75 14L16.75 17L15.65 17L15.65 14ZM16.80 18.35L16.79 18.47L16.75 18.58L16.70 18.68L16.62 18.77L16.53 18.85L16.43 18.90L16.32 18.94L16.20 18.95L16.08 18.94L15.97 18.90L15.87 18.85L15.78 18.77L15.70 18.68L15.65 18.58L15.61 18.47L15.60 18.35L15.61 18.23L15.65 18.12L15.70 18.02L15.78 17.93L15.87 17.85L15.97 17.80L16.08 17.76L16.20 17.75L16.32 17.76L16.43 17.80L16.53 17.85L16.62 17.93L16.70 18.02L16.75 18.12L16.79 18.23Z"/>
</svg>
