<svg xmlns="http://www.w3.org/2000/svg" width="24" height="24" viewBox="0 0 24 24">
  <defs>
    <style id="current-color-scheme" type="text/css">
      .ColorScheme-Text { color:#232629; }
      .ColorScheme-NegativeText { color:#da4453; }
      .ColorScheme-Highlight { color:#3daee9; }
    </style>
  </defs>
  <path class="ColorScheme-Text" fill="currentColor" fill-rule="evenodd" d="M14.38 5.17L14.12 4.88L13.83 4.62L13.50 4.40L13.15 4.23L12.78 4.10L12.39 4.03L12 4L11.61 4.03L11.22 4.10L10.85 4.23L10.50 4.40L10.17 4.62L9.88 4.88L9.62 5.17L9.40 5.50L9.23 5.85L9.10 6.22L9.04 6.56L14.92 12.68L14.97 12.39L15 12L15 7L14.97 6.61L14.90 6.22L14.77 5.85L14.60 5.50ZM19.22 20.42L19.39 20.45L19.56 20.43L19.71 20.37L19.85 20.27L19.96 20.14L20.02 19.98L20.05 19.81L20.03 19.64L19.97 19.49L19.87 19.35L5.07 3.95L4.94 3.84L4.78 3.78L4.61 3.75L4.44 3.77L4.29 3.83L4.15 3.93L4.04 4.06L3.98 4.22L3.95 4.39L3.97 4.56L4.03 4.71L4.13 4.85L18.93 20.25L19.06 20.36ZM16.90 12.98L16.98 12.49L17 12L17 10L16 10L16 12L15.98 12.39L15.92 12.78L15.83 13.16L15.71 13.50L16.45 14.28L16.62 13.91L16.78 13.45ZM9.23 13.15L9.40 13.50L9.62 13.83L9.88 14.12L10.17 14.38L10.50 14.60L10.85 14.77L11.22 14.90L11.61 14.97L12 15L12.40 14.97L9 11.43L9 12L9.03 12.39L9.10 12.78ZM7.38 13.91L7.59 14.36L7.84 14.78L8.13 15.17L8.46 15.54L8.83 15.87L9.22 16.16L9.64 16.41L10.09 16.62L10.55 16.78L11 16.90L11 19L8 19L8 20L16 20L16 19L13 19L13 16.90L13.45 16.78L13.96 16.60L13.21 15.81L12.78 15.92L12.39 15.98L12 16L11.61 15.98L11.22 15.92L10.84 15.83L10.47 15.70L10.11 15.53L9.78 15.33L9.46 15.09L9.17 14.83L8.91 14.54L8.67 14.22L8.47 13.89L8.30 13.53L8.17 13.16L8.08 12.78L8.02 12.39L8 12L8 10.39L7.62 10L7 10L7 12L7.02 12.49L7.10 12.98L7.22 13.45Z"/>
</svg>
